<svg xmlns="http://www.w3.org/2000/svg" viewBox="0 0 68 68"><defs><style>.cls-1{fill:#5fc8ed;}.cls-2{fill:#fff;}</style></defs><title>icon_cuidado_personal</title><g id="Capa_2" data-name="Capa 2"><g id="icon_cuidado_personal"><path class="cls-1" d="M0,34A34,34,0,1,1,34,68,34,34,0,0,1,0,34"/><path class="cls-2" d="M25.26,29.75c.13.22.25.47.41.7,1,1.4,1.91,2.8,2.88,4.19a11.63,11.63,0,0,1,2.27,7.24c-.1,2.83,0,5.67,0,8.51a2.31,2.31,0,0,0,2.52,2.49c.56,0,1.12,0,1.67,0a2.17,2.17,0,0,0,2.18-1.75,5.36,5.36,0,0,0,.13-1.2c0-2.86,0-5.73,0-8.59a7.4,7.4,0,0,1,1.12-4c.59-1,1.22-1.92,1.81-2.9.91-1.53,1.8-3.08,2.68-4.59C39.15,26,28.66,26,25.26,29.75Zm12,2.37c0,.43,0,.86,0,1.29h.08a12.51,12.51,0,0,1-.2,2,3.2,3.2,0,0,1-3.47,2.32,3.26,3.26,0,0,1-2.83-3.09,20.38,20.38,0,0,1,0-2.43A3.22,3.22,0,0,1,34,29.09,3.16,3.16,0,0,1,37.22,32.11Z"/><path class="cls-2" d="M24.23,27.51c6.57-3.74,13-3.74,19.59,0a23.73,23.73,0,0,0,1.87-7.06H22.29A23.43,23.43,0,0,0,24.23,27.51Z"/><path class="cls-2" d="M40.27,38.62a5.71,5.71,0,0,0-.84,3.1c.05,2.76,0,5.52,0,8.29,0,2-.72,3.79-2.7,4.62a7.63,7.63,0,0,1-5.07.12,4.45,4.45,0,0,1-3-4.46c0-3.17,0-6.34,0-9.5a9.3,9.3,0,0,0-2.12-5.28,2.8,2.8,0,0,0-.09.42c0,5.22-.06,10.44,0,15.66.05,3.48,2.29,5.55,5.76,5.59,1.24,0,2.48,0,3.73,0a5.35,5.35,0,0,0,5.66-5.68c0-4.79,0-9.58,0-14.37,0-.18,0-.36-.08-.69C41.06,37.27,40.67,37.95,40.27,38.62Z"/><path class="cls-2" d="M43.75,16.07V12.85H41.59V16H39.42V12.87H37.25V16H35.09V12.87H32.92V16H30.77V12.87H28.62V16H26.49c0-.91,0-1.78,0-2.63,0-.2-.24-.53-.39-.55a16.35,16.35,0,0,0-1.83,0v3.3H22.17v2H45.83V16.07Z"/><path class="cls-2" d="M32.95,34.49a1,1,0,0,0,1.07,1,1,1,0,0,0,1.06-1,21.56,21.56,0,0,0,0-2.41A1,1,0,0,0,34,31.24a1,1,0,0,0-1,1,10,10,0,0,0,0,1.13h0A10.92,10.92,0,0,0,32.95,34.49Z"/></g></g></svg>