<svg xmlns="http://www.w3.org/2000/svg" viewBox="0 0 68 68"><defs><style>.cls-1{fill:#b4becc;}.cls-2{fill:#fff;}</style></defs><title>icon_linea_blanca</title><g id="Capa_2" data-name="Capa 2"><g id="icon_linea_blanca"><path class="cls-1" d="M0,34A34,34,0,1,1,34,68,34,34,0,0,1,0,34"/><path class="cls-2" d="M43.13,13.1H25.47a2.83,2.83,0,0,0-2.83,2.83V26.61H46V15.93A2.83,2.83,0,0,0,43.13,13.1ZM27.75,23a1,1,0,0,1-1,1h-.09a1,1,0,0,1-1-1V17.27a1,1,0,0,1,1-1h.09a1,1,0,0,1,1,1Z"/><path class="cls-2" d="M22.64,29.07v23a2.83,2.83,0,0,0,2.83,2.83H43.13A2.83,2.83,0,0,0,46,52.1v-23Zm5.11,18.22a1,1,0,0,1-1,1h-.09a1,1,0,0,1-1-1V32.85a1,1,0,0,1,1-1h.09a1,1,0,0,1,1,1Z"/></g></g></svg>