<svg xmlns="http://www.w3.org/2000/svg" viewBox="0 0 130.05 27.71"><title>fizzmod_logo</title><g id="Capa_2" data-name="Capa 2"><g id="fizzmod_logo"><g id="logo_fizzmod"><path d="M13.28,16.26c2.22,0,4.1-1,4.1-2.15S15.51,12,13.28,12s-4.1,1-4.1,2.16S11.06,16.26,13.28,16.26Z"/><path d="M17.59,6.79V1.58h.95a.79.79,0,1,0,0-1.58H8.15a.79.79,0,0,0,0,1.58h.95V6.79L1.35,18.3c-.08.1-1.86,2.5-1.21,4.89a4.77,4.77,0,0,0,3,3.08c.12.06,3,1.44,10.16,1.44s10-1.38,10.11-1.42a4.82,4.82,0,0,0,3.09-3.1c.64-2.39-1.14-4.78-1.19-4.85Zm7.42,16a3.39,3.39,0,0,1-2.21,2.07s-2.7,1.27-9.45,1.27-9.43-1.26-9.5-1.29a3.35,3.35,0,0,1-2.17-2c-.45-1.64.93-3.5,1-3.56l7.9-11.75A.78.78,0,0,0,10.67,7V1.58H16V7a.79.79,0,0,0,.13.44l7.92,11.78S25.45,21.15,25,22.78Z"/><path d="M21.94,19.6l-3.06-4.55a3.08,3.08,0,0,1-1.37,1.85,1.65,1.65,0,0,1,.74,1.35,1.67,1.67,0,1,1-3.33,0A1.58,1.58,0,0,1,15,17.9a9.2,9.2,0,0,1-1.71.16c-2.92,0-5.25-1.29-5.6-3L4.63,19.6l0,.07a3.42,3.42,0,0,0-.69,2.4,2.21,2.21,0,0,0,1.44,1.27l.09,0s2.25,1,7.87,1,7.86-1,7.88-1l.07,0a2.22,2.22,0,0,0,1.44-1.27,3.45,3.45,0,0,0-.69-2.4Z"/><path d="M38.73,5c-.79,1.28-.79,1.76-.79,3.8V23.11h2.7V12.36H44v-2.2H40.65V8.84c0-2.15.21-2.67,1.49-3.25A2.24,2.24,0,0,1,44,5.67V3.57a2.89,2.89,0,0,0-1.55-.39A4,4,0,0,0,38.73,5Z"/><path d="M48.12,3.94a1.48,1.48,0,1,0,1.49,1.47A1.47,1.47,0,0,0,48.12,3.94Z"/><rect x="46.78" y="10.15" width="2.7" height="12.95"/><polygon points="53.02 12.36 59.52 12.36 53.02 20.64 53.02 23.11 62.33 23.11 62.33 20.9 55.8 20.9 62.33 12.46 62.33 10.15 53.02 10.15 53.02 12.36"/><polygon points="65.47 12.36 71.97 12.36 65.47 20.64 65.47 23.11 74.78 23.11 74.78 20.9 68.25 20.9 74.78 12.46 74.78 10.15 65.47 10.15 65.47 12.36"/><path d="M93.21,9.94a4.2,4.2,0,0,0-3.83,2.75c-.81-2.1-2.62-2.94-5.16-2.75a4,4,0,0,0-3.41,2.31v-2.1h-2.7v13h2.7V16.16c0-2.28.89-4,3.41-4,2.23,0,2.91,1.15,2.91,3.77V23l0,.1h2.73V15.63c.19-2.1,1.13-3.51,3.38-3.51s2.91,1.15,2.91,3.77v7.21h2.7V15.63C98.82,11.38,96.73,9.68,93.21,9.94Z"/><path d="M108,9.92a6.73,6.73,0,1,0,6.74,6.74A6.65,6.65,0,0,0,108,9.92Zm0,11.25a4.21,4.21,0,0,1-4-4.51,4.06,4.06,0,1,1,8.08,0A4.21,4.21,0,0,1,108,21.16Z"/><path d="M127.32,3.44v7.73a6.53,6.53,0,0,0-3.72-1.26,6.44,6.44,0,0,0-6.48,6.74,6.42,6.42,0,0,0,6.48,6.71,6.52,6.52,0,0,0,3.72-1.23v1H130V3.44Zm0,15.65a3.7,3.7,0,0,1-3.46,2.07,4.21,4.21,0,0,1-4-4.51c0-2.65,1.81-4.51,4-4.51a3.68,3.68,0,0,1,3.46,2,5.5,5.5,0,0,1,.58,2.46A5.32,5.32,0,0,1,127.32,19.09Z"/></g></g></g></svg>