<svg xmlns="http://www.w3.org/2000/svg" viewBox="0 0 22.25 27.73">
	<title>icn_user</title>
	<g id="icn_user">
		<path d="M22,22.92a11.6,11.6,0,0,0-21.81,0,3.61,3.61,0,0,0,.43,3.3,3.51,3.51,0,0,0,2.91,1.51H18.69a3.51,3.51,0,0,0,2.91-1.51A3.6,3.6,0,0,0,22,22.92ZM20.2,25.24a1.82,1.82,0,0,1-1.51.79H3.56A1.82,1.82,0,0,1,2,25.24a1.88,1.88,0,0,1-.23-1.74,9.9,9.9,0,0,1,18.61,0A1.87,1.87,0,0,1,20.2,25.24Z"/><path d="M11.12,12.08a6,6,0,1,0-6-6A6,6,0,0,0,11.12,12.08Zm0-10.37A4.33,4.33,0,1,1,6.79,6,4.34,4.34,0,0,1,11.12,1.71Z"/>
	</g>
</svg>
