<svg xmlns="http://www.w3.org/2000/svg" viewBox="0 0 149.48 124.55"><title>icn_store</title><g id="icn_store"><g id="icon_store"><path d="M144.86,35.34H120.58a1.54,1.54,0,1,0,0,3.08h24.28A1.54,1.54,0,0,1,146.4,40v29H120.95a1.54,1.54,0,1,0,0,3.08H146.4v47.92a1.54,1.54,0,0,1-1.54,1.54H129.56v-31a4.62,4.62,0,0,0-4.61-4.61H23.6A4.62,4.62,0,0,0,19,90.45v31H4.61a1.54,1.54,0,0,1-1.54-1.54V72H26.54a1.54,1.54,0,0,0,0-3.08H3.08V40a1.54,1.54,0,0,1,1.54-1.54H26.5a1.54,1.54,0,0,0,0-3.08H4.61A4.62,4.62,0,0,0,0,40v80a4.62,4.62,0,0,0,4.61,4.61H144.86a4.62,4.62,0,0,0,4.61-4.61V40A4.62,4.62,0,0,0,144.86,35.34ZM126.48,90.45v31h-23.8V88.91h22.26A1.54,1.54,0,0,1,126.48,90.45ZM75.81,88.91h23.8v32.56H75.81Zm-3.08,32.56H48.94V88.91h23.8Zm-50.67-31a1.54,1.54,0,0,1,1.54-1.54H45.86v32.56H22.06Z"/><path d="M42.47,73.76H107a4.62,4.62,0,0,0,4.61-4.61V4.61A4.62,4.62,0,0,0,107,0H42.47a4.62,4.62,0,0,0-4.61,4.61V69.14A4.62,4.62,0,0,0,42.47,73.76ZM40.94,4.61a1.54,1.54,0,0,1,1.54-1.54H107a1.54,1.54,0,0,1,1.54,1.54V69.14A1.54,1.54,0,0,1,107,70.68H42.47a1.54,1.54,0,0,1-1.54-1.54Z"/><path d="M74.71,29.66a2.49,2.49,0,0,0,2.63-1.76l1.1-12.37c0-1.5-1.66-2.72-3.7-2.72S71,14,71,15.57l1.1,12.34A2.4,2.4,0,0,0,74.71,29.66Z"/><path d="M54.44,29.43l11.27,5.25a1.54,1.54,0,0,0,.53.09,2.78,2.78,0,0,0,2.23-1.5h0a2.47,2.47,0,0,0-.2-3.15L58.11,23a2.23,2.23,0,0,0-1.74-.19,4.25,4.25,0,0,0-2.45,2.05A4.32,4.32,0,0,0,53.39,28,2.19,2.19,0,0,0,54.44,29.43Z"/><path d="M83.18,34.77a1.67,1.67,0,0,0,.61-.11l11.26-5.25A2.26,2.26,0,0,0,96.1,28a4.18,4.18,0,0,0-.56-3.11,4.21,4.21,0,0,0-2.44-2,2.3,2.3,0,0,0-1.82.21L81.12,30.15A2.55,2.55,0,0,0,81,33.27,2.74,2.74,0,0,0,83.18,34.77Z"/><path d="M74.74,61c2,0,3.7-1.22,3.7-2.77L77.33,45.82a2.5,2.5,0,0,0-2.62-1.72,2.36,2.36,0,0,0-2.57,1.76L71,58.23C71,59.76,72.67,61,74.74,61Z"/><path d="M95,44.33,83.76,39.08a2.45,2.45,0,0,0-2.8,1.4,2.58,2.58,0,0,0,.2,3.18l10.16,7.12a2.15,2.15,0,0,0,1.08.28,2.66,2.66,0,0,0,.7-.1,4.68,4.68,0,0,0,3-5.2A2.27,2.27,0,0,0,95,44.33Z"/><path d="M65.63,39.1,54.4,44.32c-1.3.76-1.51,2.77-.48,4.58a4.25,4.25,0,0,0,2.45,2.05A2.57,2.57,0,0,0,57,51a2.14,2.14,0,0,0,1.11-.3L68.3,43.61a2.48,2.48,0,0,0,.17-3.12A2.42,2.42,0,0,0,65.63,39.1Z"/><path d="M38.83,105.29,32,98.47a1.54,1.54,0,1,0-2.18,2.18l6.83,6.83a1.54,1.54,0,1,0,2.18-2.18Z"/><path d="M56.33,100.64l6.83,6.83a1.54,1.54,0,1,0,2.18-2.18l-6.83-6.83a1.54,1.54,0,0,0-2.18,2.18Z"/><path d="M90.89,105.29l-6.83-6.83a1.54,1.54,0,0,0-2.18,2.18l6.83,6.83a1.54,1.54,0,1,0,2.18-2.18Z"/><path d="M109.75,100.64l6.83,6.83a1.54,1.54,0,1,0,2.18-2.18l-6.83-6.83a1.54,1.54,0,0,0-2.18,2.18Z"/></g></g></svg>
