<svg xmlns="http://www.w3.org/2000/svg" viewBox="0 0 49.86 40.27"><title>icn_compare</title><g id="icn_compare"><g id="icon_compare"><path d="M8.79,0H4.46A4.46,4.46,0,0,0,0,4.46V35.81a4.46,4.46,0,0,0,4.46,4.46H8.79a4.46,4.46,0,0,0,4.46-4.46V4.46A4.46,4.46,0,0,0,8.79,0Zm1.54,35.81a1.55,1.55,0,0,1-1.54,1.54H4.46a1.55,1.55,0,0,1-1.54-1.54V4.46A1.55,1.55,0,0,1,4.46,2.91H8.79a1.55,1.55,0,0,1,1.54,1.54Z"/><path d="M27.09,0H22.77a4.46,4.46,0,0,0-4.46,4.46V35.81a4.46,4.46,0,0,0,4.46,4.46h4.33a4.46,4.46,0,0,0,4.46-4.46V4.46A4.46,4.46,0,0,0,27.09,0Zm1.54,35.81a1.55,1.55,0,0,1-1.54,1.54H22.77a1.55,1.55,0,0,1-1.54-1.54V4.46a1.55,1.55,0,0,1,1.54-1.54h4.33a1.55,1.55,0,0,1,1.54,1.54Z"/><path d="M45.4,0H41.08a4.46,4.46,0,0,0-4.46,4.46V35.81a4.46,4.46,0,0,0,4.46,4.46H45.4a4.46,4.46,0,0,0,4.46-4.46V4.46A4.46,4.46,0,0,0,45.4,0Zm1.54,35.81a1.55,1.55,0,0,1-1.54,1.54H41.08a1.55,1.55,0,0,1-1.54-1.54V4.46a1.55,1.55,0,0,1,1.54-1.54H45.4a1.55,1.55,0,0,1,1.54,1.54Z"/></g></g></svg>