<svg xmlns="http://www.w3.org/2000/svg" viewBox="0 0 34.67 27.06">
	<title>icn_payment</title>
	<g id="icn_payment">
		<path d="M32.68,9h-6.1l-1-4.64h0L24.9,1.55A2,2,0,0,0,22.52,0l-21,4.72A2,2,0,0,0,0,7.15L.68,9.94h0l2.47,11a2,2,0,0,0,2.38,1.5l3.67-.83v3.49a2,2,0,0,0,2,2h21.5a2,2,0,0,0,2-2V11A2,2,0,0,0,32.68,9ZM33,11v2H10.9V11a.29.29,0,0,1,.28-.28h21.5A.29.29,0,0,1,33,11Zm-31-4.54,21-4.72a.29.29,0,0,1,.34.22l.44,2L2.15,8.73l-.44-2A.29.29,0,0,1,1.93,6.44ZM5.15,20.74a.29.29,0,0,1-.34-.21L2.53,10.4,24.06,5.55,24.83,9H11.19a2,2,0,0,0-2,2v8.86Zm27.53,4.61H11.19a.29.29,0,0,1-.28-.28V14.69H33V25.07A.29.29,0,0,1,32.68,25.36Z"/>
		<path d="M29.28,20.65H26.74a.85.85,0,1,0,0,1.71h2.54a.85.85,0,1,0,0-1.71Z"/>
	</g>
</svg>
