<svg xmlns="http://www.w3.org/2000/svg" viewBox="0 0 33.05 33.05"><title>icn_specification</title><g id="icn_specification"><g id="icon_specifications"><path d="M18.79,33H14.26a1.62,1.62,0,0,1-1.62-1.62V28.2A11.79,11.79,0,0,1,11,27.53L8.74,29.81a1.62,1.62,0,0,1-2.29,0l-3.2-3.2a1.62,1.62,0,0,1,0-2.29l2.22-2.22a12.24,12.24,0,0,1-.71-1.68H1.62A1.62,1.62,0,0,1,0,18.79V14.26a1.62,1.62,0,0,1,1.62-1.62H4.75A12.07,12.07,0,0,1,5.46,11L3.24,8.74a1.63,1.63,0,0,1,0-2.29L6.44,3.24a1.66,1.66,0,0,1,2.29,0L11,5.51a12.19,12.19,0,0,1,1.63-.66V1.62A1.62,1.62,0,0,1,14.26,0h4.53a1.62,1.62,0,0,1,1.62,1.62V5a12.08,12.08,0,0,1,1.53.65l2.37-2.37a1.61,1.61,0,0,1,1.15-.48h0a1.61,1.61,0,0,1,1.15.48l3.2,3.21a1.62,1.62,0,0,1,0,2.29L27.4,11.15,28,12.64h3.41A1.62,1.62,0,0,1,33,14.26v4.53a1.62,1.62,0,0,1-1.62,1.62H28L27.4,21.9l2.41,2.41a1.62,1.62,0,0,1,0,2.29l-3.2,3.2a1.62,1.62,0,0,1-2.29,0l-2.37-2.37a12.13,12.13,0,0,1-1.53.65v3.34A1.62,1.62,0,0,1,18.79,33Zm-4.15-2h3.77V27.8a1.61,1.61,0,0,1,1.13-1.53,10.08,10.08,0,0,0,1.7-.72,1.61,1.61,0,0,1,1.91.27l2.31,2.31,2.67-2.67-2.32-2.32a1.62,1.62,0,0,1-.35-1.77l.81-2a1.62,1.62,0,0,1,1.5-1H31V14.64H27.77a1.62,1.62,0,0,1-1.5-1l-.81-2a1.62,1.62,0,0,1,.35-1.76l2.32-2.32L25.46,4.92,23.15,7.23a1.61,1.61,0,0,1-1.91.27,10.07,10.07,0,0,0-1.7-.72,1.61,1.61,0,0,1-1.13-1.53V2H14.64V5.13a1.61,1.61,0,0,1-1.17,1.55,10.16,10.16,0,0,0-1.79.73,1.62,1.62,0,0,1-1.89-.29l-2.2-2.2L4.92,7.59,7.07,9.74a1.61,1.61,0,0,1,.27,1.92,10,10,0,0,0-.76,1.82A1.62,1.62,0,0,1,5,14.64H2v3.77H5a1.62,1.62,0,0,1,1.54,1.15,10.16,10.16,0,0,0,.77,1.82,1.61,1.61,0,0,1-.27,1.92L4.92,25.46l2.67,2.67,2.21-2.21a1.61,1.61,0,0,1,1.9-.28,9.81,9.81,0,0,0,1.77.72,1.61,1.61,0,0,1,1.17,1.55Z"/><path d="M16.52,22.1a5.58,5.58,0,1,1,5.58-5.58A5.59,5.59,0,0,1,16.52,22.1Zm0-9.16a3.58,3.58,0,1,0,3.58,3.58A3.58,3.58,0,0,0,16.52,12.94Z"/></g></g></svg>