<svg xmlns="http://www.w3.org/2000/svg" viewBox="0 0 26.55 36.75"><title>icn_trash</title><g id="icn_trash"><g id="icon_trash"><path d="M24.65,11.79a1,1,0,0,0-1.09.9l-2,21.23a.83.83,0,0,1-.83.83H5.82A.86.86,0,0,1,5,33.83L3,12.69a1,1,0,1,0-2,.19l2,21a2.84,2.84,0,0,0,2.83,2.83H20.73A2.81,2.81,0,0,0,23.56,34l2-21.13A1,1,0,0,0,24.65,11.79Z"/><path d="M23.71,5.51H19.31V2.83A2.84,2.84,0,0,0,16.47,0h-6.4A2.84,2.84,0,0,0,7.24,2.83V5.51H2.83A2.84,2.84,0,0,0,0,8.34a1,1,0,0,0,2,0,.83.83,0,0,1,.83-.83H23.71a.83.83,0,0,1,.83.83,1,1,0,1,0,2,0A2.84,2.84,0,0,0,23.71,5.51ZM9.24,2.83A.83.83,0,0,1,10.07,2h6.4a.83.83,0,0,1,.83.83V5.51H9.24Z"/><path d="M9,29.13h.09A1,1,0,0,0,10,28L8.68,12.7a1,1,0,0,0-2,.17L8,28.21A1,1,0,0,0,9,29.13Z"/><path d="M14.27,28.13V12.79a1,1,0,0,0-2,0V28.13a1,1,0,0,0,2,0Z"/><path d="M17.34,29.13a1,1,0,0,0,1-.9l1.52-15.34a1,1,0,1,0-2-.2L16.35,28a1,1,0,0,0,.9,1.09Z"/></g></g></svg>