<svg xmlns="http://www.w3.org/2000/svg" viewBox="0 0 70.43 48.75"><title>icn_mercadopago</title><g id="icn_mercadopago"><path id="icon_Mp" d="M35.22,0C15.77,0,0,10.34,0,23c0,.33,0,1.23,0,1.35C0,37.84,13.78,48.75,35.21,48.75s35.22-10.9,35.22-24.36V23C70.43,10.34,54.67,0,35.22,0ZM68.84,20.48a80.68,80.68,0,0,0-14.79,4.81C50.71,22.37,43,15.66,40.9,14.09a9.19,9.19,0,0,0-2.72-1.59,4.51,4.51,0,0,0-1.34-.21,5.64,5.64,0,0,0-1.7.29,13.92,13.92,0,0,0-4,2.53l-.07.05a11,11,0,0,1-3.42,2.17,5.77,5.77,0,0,1-1.26.14A3.24,3.24,0,0,1,24,16.72c-.06-.08,0-.2.12-.37l0,0,2.94-3.17c2.3-2.3,4.48-4.48,9.48-4.59h.25a17.73,17.73,0,0,1,6.58,1.56,20.37,20.37,0,0,0,9,2.15,23.39,23.39,0,0,0,9.82-2.35A18.36,18.36,0,0,1,68.84,20.48ZM35.22,1.36C45.55,1.36,54.79,4.32,61,9a21.65,21.65,0,0,1-8.62,2,19.07,19.07,0,0,1-8.39-2,18.89,18.89,0,0,0-7.16-1.69h-.28a12.43,12.43,0,0,0-8.16,2.9,16.16,16.16,0,0,0-4.07.74,11,11,0,0,1-2.87.55c-.37,0-1,0-1.09,0A55.82,55.82,0,0,1,10.05,8.54C16.25,4.13,25.23,1.36,35.22,1.36ZM8.84,9.45A51,51,0,0,0,20,12.67c.46,0,.95.08,1.44.08a12.24,12.24,0,0,0,3.24-.6c.62-.18,1.31-.37,2-.5l-.58.58-3,3.23a1.5,1.5,0,0,0-.41,1.65,2.1,2.1,0,0,0,.79.87,6.22,6.22,0,0,0,3.17.8,5.75,5.75,0,0,0,1.26-.13,11.45,11.45,0,0,0,4-2.43,13.16,13.16,0,0,1,3.89-2.33,4.42,4.42,0,0,1,1.08-.15l.28,0a5.84,5.84,0,0,1,2.94,1.4C42.55,17,53.39,26.49,53.5,26.59a2.08,2.08,0,0,1,.65,1.59,1.74,1.74,0,0,1-.87,1.38,2.64,2.64,0,0,1-1.42.44,2.34,2.34,0,0,1-1.26-.36s-3.76-3.44-5.12-4.58a1.15,1.15,0,0,0-.64-.34.35.35,0,0,0-.28.13c-.22.27,0,.63.31.87l4.34,4.36a2.05,2.05,0,0,1,.6,1.18,2,2,0,0,1-1,1.8,2.8,2.8,0,0,1-1.54.51A2.24,2.24,0,0,1,46,33.2l-.62-.61c-1.14-1.12-2.31-2.28-3.17-3a1.15,1.15,0,0,0-.65-.34.37.37,0,0,0-.27.12c-.1.11-.17.31.08.63a2.11,2.11,0,0,0,.22.24l3.17,3.56a1.21,1.21,0,0,1,.07,1.52l-.11.14a3.25,3.25,0,0,1-.29.28,2.53,2.53,0,0,1-1.55.49,2.42,2.42,0,0,1-.43,0,1.08,1.08,0,0,1-.62-.26l0,0C41.6,35.72,40,34.09,38.68,33a1.09,1.09,0,0,0-.62-.33.38.38,0,0,0-.29.13c-.26.29.13.71.3.87l2.7,3a.62.62,0,0,1-.1.18c-.1.13-.42.46-1.4.58l-.36,0a6.17,6.17,0,0,1-2.64-.79,4,4,0,0,0-3.64-5.75h-.15a3.58,3.58,0,0,0-2-3.78,4.24,4.24,0,0,0-1.69-.37,3.43,3.43,0,0,0-1.23.22,3.39,3.39,0,0,0-2-1.68A4.42,4.42,0,0,0,24.09,25a3.81,3.81,0,0,0-2.25.72,3.4,3.4,0,0,0-5.06-.28c-.84-.64-4.18-2.76-13.1-4.79-.43-.1-1.39-.37-2-.55C2.51,16.12,5.06,12.46,8.84,9.45ZM25.4,32.7l-.1-.09h-.1a.48.48,0,0,0-.27.11,2.3,2.3,0,0,1-1.33.47,2.06,2.06,0,0,1-.74-.15A2.89,2.89,0,0,1,21,29.7a.28.28,0,0,0-.09-.27l-.15-.12-.14.13a2.15,2.15,0,1,1,.64-1.82l.07.58.32-.49a3,3,0,0,1,3.43-1.22,2.17,2.17,0,0,1,1.52,2c0,.28.22.29.26.29a.35.35,0,0,0,.25-.13A2.17,2.17,0,0,1,28.75,28a3,3,0,0,1,1.19.27c2,.87,1.11,3.44,1.09,3.47-.17.43-.18.61,0,.72l.08,0h.06a1.44,1.44,0,0,0,.39-.1,3.45,3.45,0,0,1,1.08-.24h0a2.76,2.76,0,1,1,0,5.52A2.74,2.74,0,0,1,29.87,35c0-.13,0-.46-.3-.46a.53.53,0,0,0-.34.18,1.94,1.94,0,0,1-1.35.61,2.37,2.37,0,0,1-.89-.19c-1.57-.64-1.59-1.72-1.53-2.15A.39.39,0,0,0,25.4,32.7Zm9.83,12C16.52,44.68,1.36,35,1.36,23a14.09,14.09,0,0,1,.08-1.43l1.94.46c9.12,2,12.13,4.13,12.64,4.53a3.42,3.42,0,0,0,3.78,4.68,4,4,0,0,0,2.58,3,3.4,3.4,0,0,0,1.22.24,3.12,3.12,0,0,0,.78-.1,4,4,0,0,0,3.46,2.26,3,3,0,0,0,1-.19,4,4,0,0,0,6.61,1.28,7.6,7.6,0,0,0,3.41,1,4.37,4.37,0,0,0,.52,0,3.13,3.13,0,0,0,2.31-1.13,1.68,1.68,0,0,0,.14-.23,3.92,3.92,0,0,0,1.09.17,3.68,3.68,0,0,0,2.21-.79,3,3,0,0,0,1.3-1.89v0a3.66,3.66,0,0,0,.74.08,4.1,4.1,0,0,0,2.27-.72,3.27,3.27,0,0,0,1.63-2.91,3.64,3.64,0,0,0,.75.08A3.91,3.91,0,0,0,54,30.68a3.1,3.1,0,0,0,1.47-2.4A3.24,3.24,0,0,0,55,26.34a87.72,87.72,0,0,1,14-4.4c0,.36,0,.72,0,1.08C69.08,35,53.92,44.68,35.22,44.68Z"/></g></svg>