<svg xmlns="http://www.w3.org/2000/svg" viewBox="0 0 23.21 29.33"><title>icn_secure</title><g id="icn_secure"><g id="icon__secure" data-name="icon_
secure"><path d="M19.57,10.5V8A8,8,0,0,0,3.64,8V10.5A3.85,3.85,0,0,0,0,14.33V25.48a3.86,3.86,0,0,0,3.85,3.85h15.5a3.86,3.86,0,0,0,3.85-3.85V14.33A3.85,3.85,0,0,0,19.57,10.5ZM5.35,8A6.26,6.26,0,1,1,17.86,8v2.52H5.35ZM21.5,25.48a2.15,2.15,0,0,1-2.15,2.15H3.85a2.15,2.15,0,0,1-2.15-2.15V14.33a2.15,2.15,0,0,1,2.15-2.15h15.5a2.15,2.15,0,0,1,2.15,2.15Z"/><path d="M11.56,16a2.25,2.25,0,0,0-.81,4.34v3a.85.85,0,0,0,1.71,0V20.33a2.25,2.25,0,0,0-.9-4.31Z"/></g></g></svg>