<svg xmlns="http://www.w3.org/2000/svg" viewBox="0 0 35.08 33.89">
	<title>icn_cart</title>
	<g id="icn_cart">
		<path
			d="M34.19,5.56a4.2,4.2,0,0,0-3.34-1.64H10.43A3.5,3.5,0,0,0,8,4.94L7.42,2.7A3.54,3.54,0,0,0,4,0H.89a.89.89,0,1,0,0,1.77H4A1.77,1.77,0,0,1,5.7,3.13L7,8.37H7l2.35,8.83a3.39,3.39,0,0,0,.13.36.84.84,0,0,0,0,.1l1.67,6.14a3.55,3.55,0,0,0,3.42,2.63H29.3a.89.89,0,0,0,0-1.77H14.58a1.78,1.78,0,0,1-1.71-1.32l-1-3.64a3.5,3.5,0,0,0,.9.13H29.45a3.54,3.54,0,0,0,3.43-2.66l2.06-8A4.2,4.2,0,0,0,34.19,5.56Zm-1,3.2-2.06,8a1.77,1.77,0,0,1-1.72,1.33H12.78a1.78,1.78,0,0,1-1.71-1.32L8.72,7.93h0A1.77,1.77,0,0,1,10.43,5.7H30.85a2.46,2.46,0,0,1,2.38,3.07Z"/><circle cx="26.92" cy="31.5" r="2.38"/><circle cx="15.49" cy="31.5" r="2.38"/>
	</g>
</svg>
