<svg xmlns="http://www.w3.org/2000/svg" viewBox="0 0 149.49 99.61"><title>icn_shipping</title><g id="icn_shipping"><g id="icon_shipping"><path d="M147.22,50.23l-16-27.7a1.54,1.54,0,0,0-1.33-.77H110.49l1.79-13.24a1.62,1.62,0,0,0,0-.21A8.32,8.32,0,0,0,104,0H30.28A8.32,8.32,0,0,0,22,8.21L12.88,75.3a1.62,1.62,0,0,0,0,.21,8.32,8.32,0,0,0,8.32,8.31,1.54,1.54,0,1,0,0-3.08,5.24,5.24,0,0,1-5.24-5.14l.8-5.94h12a1.54,1.54,0,1,0,0-3.08H17.16L25,8.52a1.62,1.62,0,0,0,0-.21,5.24,5.24,0,0,1,5.24-5.24H104a5.24,5.24,0,0,1,5.24,5.14l-7.91,58.37H61.4a1.54,1.54,0,1,0,0,3.08h39.49l-.76,5.64a1.62,1.62,0,0,0,0,.21,5.24,5.24,0,0,1-5.24,5.24H68.5a1.54,1.54,0,1,0,0,3.08H94.88a8.32,8.32,0,0,0,8.31-8.21l6.88-50.78H129l4.54,7.84h-8A1.54,1.54,0,0,0,124,34L120.9,54.81a1.54,1.54,0,0,0,1.52,1.76h23.82a13.84,13.84,0,0,1-.08,4.75l-2.86,14.9v0c-.51,3.15-2.08,4.49-5.26,4.49h-1.46a1.54,1.54,0,1,0,0,3.08H138c4.66,0,7.52-2.43,8.29-7h0l2.86-14.9A16.92,16.92,0,0,0,147.22,50.23Zm-23,3.27,2.62-17.75h8.45l9.28,16a13.82,13.82,0,0,1,.83,1.73Z"/><path d="M44.48,64.91A17.32,17.32,0,1,0,61.81,82.24,17.34,17.34,0,0,0,44.48,64.91Zm0,31.57A14.25,14.25,0,1,1,58.73,82.24,14.26,14.26,0,0,1,44.48,96.49Z"/><path d="M119.77,71.17A14.22,14.22,0,1,0,134,85.39,14.24,14.24,0,0,0,119.77,71.17Zm0,25.36a11.14,11.14,0,1,1,11.14-11.14A11.16,11.16,0,0,1,119.77,96.53Z"/><path d="M13.68,12.81a1.54,1.54,0,1,0,0-3.08H1.54a1.54,1.54,0,1,0,0,3.08Z"/><path d="M13.78,26.59a1.54,1.54,0,0,0-1.54-1.54H2.55a1.54,1.54,0,0,0,0,3.08h9.7A1.54,1.54,0,0,0,13.78,26.59Z"/><path d="M10.43,40.37H4.36a1.54,1.54,0,1,0,0,3.08h6.07a1.54,1.54,0,1,0,0-3.08Z"/><path d="M63.79,29.52a1.61,1.61,0,0,0,1.6-1l1.64-9c.09-.89-.86-1.63-2.11-1.64a2.26,2.26,0,0,0-2.43,1.62l-.08,9C62.42,29.09,63,29.52,63.79,29.52Z"/><path d="M57.19,33.18c.46.18,1.16-.18,1.62-.87a1.52,1.52,0,0,0,.13-1.83l-6.66-5.2c-.69-.45-1.87.08-2.6,1.22s-.75,2.41-.06,2.84Z"/><path d="M69.7,33.22l8.3-3.8a2.17,2.17,0,0,0,.49-2.84c-.52-1.14-1.59-1.68-2.39-1.23l-7.65,5.16a1.59,1.59,0,0,0-.22,1.83C68.55,33,69.19,33.42,69.7,33.22Z"/><path d="M61.15,41.73l-1.64,9c-.09.89.84,1.63,2.11,1.64S64,51.63,64,50.74l.08-9c0-.54-.64-1-1.42-1A1.5,1.5,0,0,0,61.15,41.73Z"/><path d="M67.56,39.82,74.21,45c.71.45,1.89-.08,2.63-1.22s.77-2.41.06-2.86L69.33,37.1c-.48-.2-1.18.18-1.64.87A1.59,1.59,0,0,0,67.56,39.82Z"/><path d="M48,43.7c.52,1.14,1.59,1.68,2.37,1.23L58,39.77a1.55,1.55,0,0,0,.22-1.83c-.32-.72-1-1.07-1.47-.88l-8.27,3.77A2.25,2.25,0,0,0,48,43.7Z"/><circle cx="44.48" cy="82.24" r="2.12"/><circle cx="119.77" cy="85.39" r="2.12"/></g></g></svg>