<svg xmlns="http://www.w3.org/2000/svg" viewBox="0 0 68 68">
	<defs>
		<style>
			#icon_aire_libre .cls-1 {
				fill: #7ec11f;
			}
			#icon_aire_libre .cls-2 {
				fill: #fff;
			}
		</style>
	</defs>
	<title>icon_aire_libre</title>
	<g id="icon_aire_libre">
		<path class="cls-1" d="M0,34A34,34,0,1,1,34,68,34,34,0,0,1,0,34"/>
		<polygon class="cls-2" points="42.47 31.5 39.53 28.91 36.66 31.7 39.6 34.29 42.47 31.5"/>
		<path class="cls-2" d="M35.65,32.67,33.1,35.13a.69.69,0,0,1-.35.17A7.55,7.55,0,0,0,34.2,37a7.46,7.46,0,0,0,1.54,1,.69.69,0,0,1,.14-.21l2.71-2.62Z"/>
		<polygon class="cls-2" points="46.31 27.79 43.37 25.2 40.54 27.94 43.48 30.53 46.31 27.79"/>
		<path class="cls-2" d="M49.64,24.56a7.57,7.57,0,0,0-2-2.8c-.13-.11-.28-.2-.42-.31l-2.85,2.76,2.94,2.59Z"/>
		<path class="cls-2" d="M44.54,31.46l3.45,3a11.42,11.42,0,0,0,1.86-3.6l-2.47-2.17Z"/>
		<path class="cls-2" d="M37.13,38.63a9.09,9.09,0,0,0,5.16-.11l-2.64-2.33Z"/>
		<path class="cls-2" d="M17.68,49.39a2.28,2.28,0,0,0-.48,2.88,2.26,2.26,0,0,0,3.29.66,4.18,4.18,0,0,0,.41-.37c2.3-2.3,3.65-3.59,5.59-5.52L23.18,44C21.27,45.85,20,47.12,17.68,49.39Z"/>
		<path class="cls-2" d="M50.56,18.46c-3.61-3.18-8.81-3.59-13.44-1.54a7.82,7.82,0,0,1-8.79,9.46,13.71,13.71,0,0,0,0,9.91A13,13,0,0,1,26,41.53a1.15,1.15,0,0,1-.27.23,8.14,8.14,0,0,0-1.13.79h0l3.3,3.07h0a6.54,6.54,0,0,0,.67-1,1.23,1.23,0,0,1,.24-.3,12.64,12.64,0,0,1,5-2.32c5.16,2.45,12,.85,16.53-4.29C55.7,31.68,55.78,23.05,50.56,18.46ZM28.46,42.62,27.7,42a14.64,14.64,0,0,0,1.8-3.64,11,11,0,0,0,1.79,2c.22.19.45.36.68.53A14.41,14.41,0,0,0,28.46,42.62Zm20-6.55a12.22,12.22,0,0,1-9,4.28,9.24,9.24,0,0,1-6.18-2.26,9.58,9.58,0,0,1-3.11-7.73.72.72,0,0,1,.73-.67.7.7,0,0,1,.67.73,8.85,8.85,0,0,0,.58,3.68l2.45-2.37-2.27-2a.7.7,0,0,1,.93-1.05l2.35,2.07L38.47,28,37,26.72A.7.7,0,0,1,38,25.67L39.48,27l2.83-2.74-2.5-2.2A.7.7,0,0,1,40.74,21l2.59,2.28L46,20.69c-.16-.08-.3-.17-.46-.24a7.72,7.72,0,0,0-4.43-.27.7.7,0,0,1-.37-1.35,9.05,9.05,0,0,1,5.34.32,8.91,8.91,0,0,1,2.5,1.55C52.75,24.39,52.72,31.28,48.5,36.07Z"/>
		<path class="cls-2" d="M50.1,26.07l-1.72,1.66,1.8,1.59A9.46,9.46,0,0,0,50.1,26.07Z"/>
		<path class="cls-2" d="M40.65,35.21l2.93,2.58a.68.68,0,0,1,.12.16,11.48,11.48,0,0,0,3.36-2.41l-3.54-3.11Z"/>
		<path class="cls-2" d="M32.8,13.65a6.26,6.26,0,0,0-2.72-1.08H28.82a6.53,6.53,0,0,0-2.7,1.05A5.17,5.17,0,0,0,32.8,13.65Z"/>
		<path class="cls-2" d="M26.11,23.56a5.86,5.86,0,0,0,6.68,0A5.15,5.15,0,0,0,26.11,23.56Z"/>
		<path class="cls-2" d="M29.46,20.36A6.89,6.89,0,0,1,34.2,22.2a5.86,5.86,0,0,0,0-7.23,7,7,0,0,1-9.46,0,5.86,5.86,0,0,0,0,7.24A6.88,6.88,0,0,1,29.46,20.36Z"/>
	</g>
</svg>
