<svg xmlns="http://www.w3.org/2000/svg" viewBox="0 0 23.85 31.6">
	<title>icn_location</title>
	<g id="icn_location">
		<path
			d="M11.92,31.6a1,1,0,0,1-.66-.25c-.38-.33-9.38-8.17-11-16.93l-.05-.26,0-.11c0-.19-.06-.37-.08-.56A11.75,11.75,0,0,1,0,11.92v-.09a10.61,10.61,0,0,1,.06-1.13c0-.3.07-.55.12-.78a11.91,11.91,0,0,1,23.5,0c0,.19.08.44.11.71a10.63,10.63,0,0,1,.07,1.16v.09a11.8,11.8,0,0,1-.12,1.58c0,.19-.05.38-.09.57l0,.13-.05.26C22,23.18,13,31,12.59,31.35A1,1,0,0,1,11.92,31.6ZM11.92,2A9.85,9.85,0,0,0,2.17,10.3c0,.21-.07.4-.09.6a8.6,8.6,0,0,0-.05.94s0,.11,0,.14a10.14,10.14,0,0,0,.1,1.27c0,.17,0,.33.07.49l.06.3C3.5,20.8,9.84,27.25,11.92,29.21c2.08-2,8.42-8.41,9.66-15.15l0-.24c0-.24.07-.4.09-.56h0a9.86,9.86,0,0,0,.1-1.32s0-.14,0-.17c0-.25,0-.55-.05-.83s-.05-.41-.09-.58A9.86,9.86,0,0,0,11.92,2Z"/><path d="M11.92,16.81a4.6,4.6,0,1,1,4.6-4.6A4.61,4.61,0,0,1,11.92,16.81Zm0-7.17a2.57,2.57,0,1,0,2.57,2.57A2.58,2.58,0,0,0,11.92,9.64Z"/>
	</g>
</svg>
