<svg xmlns="http://www.w3.org/2000/svg" viewBox="0 0 35.94 35.98"><title>icn_cart_add</title><g id="Capa_2" data-name="Capa 2"><g id="icn_cart_add"><g id="icon_cart_add"><path d="M15.08,7.87H20.3v5.22a.88.88,0,1,0,1.77,0V7.87h5.22a.89.89,0,1,0,0-1.77H22.07V.89a.88.88,0,1,0-1.77,0V6.1H15.08a.89.89,0,0,0,0,1.77Z"/><path d="M35.28,6.61a.88.88,0,0,0-1.08.63l-3,11.59a1.77,1.77,0,0,1-1.72,1.33H12.78a1.78,1.78,0,0,1-1.71-1.32L8.72,10,7.42,4.79A3.54,3.54,0,0,0,4,2.09H.89a.89.89,0,0,0,0,1.77H4A1.77,1.77,0,0,1,5.7,5.22L7,10.46H7L9.35,19.3a3.46,3.46,0,0,0,.13.36,1,1,0,0,0,0,.1l1.67,6.14a3.55,3.55,0,0,0,3.42,2.63H29.3a.89.89,0,0,0,0-1.77H14.58a1.78,1.78,0,0,1-1.71-1.32l-1-3.63a3.52,3.52,0,0,0,.9.13H29.45a3.54,3.54,0,0,0,3.43-2.65l3-11.59A.89.89,0,0,0,35.28,6.61Z"/><circle cx="26.92" cy="33.59" r="2.38"/><circle cx="15.49" cy="33.59" r="2.38"/></g></g></g></svg>