<svg xmlns="http://www.w3.org/2000/svg" viewBox="0 0 32.61 35.43"><title>icn_print</title><g id="icn_print"><g id="icon_print"><path d="M30.09,8.89H26.28v-8A.89.89,0,0,0,25.39,0H7.22a.89.89,0,0,0-.89.89v8H2.52A2.52,2.52,0,0,0,0,11.41V25.51A2.52,2.52,0,0,0,2.52,28H7.74v6.52a.88.88,0,0,0,.88.88H24a.89.89,0,0,0,.89-.88V28h5.22a2.52,2.52,0,0,0,2.52-2.52V11.41A2.52,2.52,0,0,0,30.09,8.89ZM8.1,1.77H24.51V8.89H8.1Zm15,31.89H9.51V22.08H23.1Zm7.74-8.15a.75.75,0,0,1-.75.75H24.87V21.19a.89.89,0,0,0-.89-.88H8.63a.88.88,0,0,0-.88.88v5.06H2.52a.75.75,0,0,1-.75-.75V11.41a.75.75,0,0,1,.75-.75H30.09a.75.75,0,0,1,.75.75Z"/><path d="M26.17,13.88H25a.89.89,0,1,0,0,1.77h1.13a.89.89,0,1,0,0-1.77Z"/><path d="M21,13.88H19.82a.89.89,0,0,0,0,1.77H21a.89.89,0,1,0,0-1.77Z"/></g></g></svg>