<svg xmlns="http://www.w3.org/2000/svg" viewBox="0 0 217.07 130.97">
	<title>icn_busqueda_vacia</title>
	<g id="icn_busqueda_vacia">
		<path d="M36.39,64.06H103a1.46,1.46,0,0,0,0-2.91H36.39a3.55,3.55,0,0,1-3.54-3.54V15.45a3.55,3.55,0,0,1,3.54-3.54h86A3.55,3.55,0,0,1,126,15.45v5.08a1.46,1.46,0,1,0,2.91,0V15.45A6.46,6.46,0,0,0,122.42,9h-86a6.46,6.46,0,0,0-6.46,6.46V57.6A6.46,6.46,0,0,0,36.39,64.06Z"/>
		<path d="M50.85,31.24a1.45,1.45,0,0,0-1.15.64l-10.2,15a1.46,1.46,0,1,0,2.41,1.64L51,35.15l6.43,8.08a1.46,1.46,0,0,0,2.09.2l3.38-2.91,5.66,8a1.46,1.46,0,0,0,2.38-1.68l-6.58-9.33a1.46,1.46,0,0,0-2.14-.26l-3.45,3L52,31.79A1.46,1.46,0,0,0,50.85,31.24Z"/>
		<path d="M61.83,32.32a4.8,4.8,0,1,0-.63,0A4.81,4.81,0,0,0,61.83,32.32Zm-1.87-5a1.88,1.88,0,0,1,1.86-1.63l.25,0A1.88,1.88,0,1,1,60,27.28Z"/>
		<path d="M116,21.11a1.46,1.46,0,0,0-1.46-1.46H84.43a1.46,1.46,0,0,0,0,2.91h30.12A1.46,1.46,0,0,0,116,21.11Z"/>
		<path d="M103.16,26.65H84.43a1.46,1.46,0,0,0,0,2.91h18.73a1.46,1.46,0,1,0,0-2.91Z"/>
		<path d="M84.43,43.25H95a1.46,1.46,0,0,0,0-2.91H84.43a1.46,1.46,0,0,0,0,2.91Z"/>
		<path d="M84.43,55.44h18.73a1.46,1.46,0,1,0,0-2.91H84.43a1.46,1.46,0,0,0,0,2.91Z"/>
		<path d="M147.5,112.69a1.46,1.46,0,0,0-1.46,1.46v6.15a3.55,3.55,0,0,1-3.54,3.54h-86a3.55,3.55,0,0,1-3.54-3.54V78.15a3.55,3.55,0,0,1,3.54-3.54H103a1.46,1.46,0,0,0,0-2.91H56.47A6.46,6.46,0,0,0,50,78.15V120.3a6.46,6.46,0,0,0,6.46,6.46h86A6.46,6.46,0,0,0,149,120.3v-6.15A1.46,1.46,0,0,0,147.5,112.69Z"/>
		<path d="M70.93,93.94a1.45,1.45,0,0,0-1.15.64l-10.2,15A1.46,1.46,0,1,0,62,111.21l9.09-13.36,6.43,8.08a1.46,1.46,0,0,0,2.09.2L83,103.21l5.66,8A1.46,1.46,0,1,0,91,109.56l-6.58-9.33a1.46,1.46,0,0,0-2.14-.26l-3.45,3-6.72-8.44A1.46,1.46,0,0,0,70.93,93.94Z"/>
		<path d="M81.92,95a4.79,4.79,0,0,0,.61-9.54A4.79,4.79,0,0,0,81.29,95,4.9,4.9,0,0,0,81.92,95ZM80,90a1.88,1.88,0,0,1,1.86-1.63l.25,0a1.87,1.87,0,0,1,1.62,2.1h0A1.88,1.88,0,0,1,80,90Z"/>
		<path d="M115.09,103H104.51a1.46,1.46,0,0,0,0,2.91h10.58a1.46,1.46,0,0,0,0-2.91Z"/>
		<path d="M103.05,116.68a1.46,1.46,0,0,0,1.46,1.46h30.13a1.46,1.46,0,0,0,0-2.91H104.51A1.46,1.46,0,0,0,103.05,116.68Z"/>
		<path d="M150.71,72.62a4,4,0,1,0,3.92,4A3.78,3.78,0,0,0,150.71,72.62Z"/>
		<path d="M151.32,50.21A15,15,0,0,0,144,52l1.48,4.75a8.23,8.23,0,0,1,4.32-1.31c2.18.09,3.18,1.09,3.18,2.62s-1.13,2.88-2.53,4.54a9.61,9.61,0,0,0-2.57,6.85l0,1.13h5.8v-.79A7.5,7.5,0,0,1,156,64.34c1.66-1.83,3.71-4,3.71-7.33C159.69,53.39,157.08,50.21,151.32,50.21Z"/>
		<path d="M176.65,13.17l.27,0A1.46,1.46,0,0,0,178.35,12l1.91-10.29a1.46,1.46,0,1,0-2.86-.53l-1.91,10.29A1.46,1.46,0,0,0,176.65,13.17Z"/>
		<path d="M185.68,18.08a1.46,1.46,0,0,0,2-.38l7.52-11a1.46,1.46,0,1,0-2.4-1.64l-7.52,11A1.46,1.46,0,0,0,185.68,18.08Z"/>
		<path d="M192,24.55a1.45,1.45,0,0,0,2,.66l9.78-4.83a1.46,1.46,0,0,0-1.29-2.61l-9.78,4.83A1.46,1.46,0,0,0,192,24.55Z"/>
		<path d="M215.33,117.14l-16.42-14.37-.09-.07a4.45,4.45,0,0,0-5.74.33l-.17.16L184.78,95a45.16,45.16,0,1,0-2.06,2.06l8.09,8.09-.39.37a4.46,4.46,0,0,0-.62,5.73L202.42,129a4.44,4.44,0,0,0,3.21,2l.51,0a4.41,4.41,0,0,0,3-1.2l6.5-5.87a4.46,4.46,0,0,0-.35-6.76ZM122,94a42.21,42.21,0,1,1,29.85,12.36A42.26,42.26,0,0,1,122,94Zm91.69,27.72-6.51,5.87A1.52,1.52,0,0,1,206,128a1.56,1.56,0,0,1-1.14-.73L192.2,109.65a1.54,1.54,0,0,1,.23-2h0l2.67-2.53a1.54,1.54,0,0,1,2-.14l16.41,14.36.09.07a1.55,1.55,0,0,1,.17,2.33Z"/>
		<path d="M37.7,76.13H4.46A4.46,4.46,0,0,0,0,80.59V93a4.46,4.46,0,0,0,4.46,4.46H37.7A4.46,4.46,0,0,0,42.16,93V80.59A4.46,4.46,0,0,0,37.7,76.13ZM39.25,93a1.55,1.55,0,0,1-1.54,1.54H4.46A1.55,1.55,0,0,1,2.91,93V80.59A1.55,1.55,0,0,1,4.46,79H37.7a1.55,1.55,0,0,1,1.54,1.54Z"/>
		<path d="M33.09,85.33h-12a1.46,1.46,0,0,0,0,2.91h12a1.46,1.46,0,0,0,0-2.91Z"/>
	</g>
</svg>
