<svg xmlns="http://www.w3.org/2000/svg" viewBox="0 0 68 68">
	<defs>
		<style>
			#icon_hogar .cls-1 {
				fill: #ffb31a;
			}
			#icon_hogar .cls-2 {
				fill: #fff;
			}
		</style>
	</defs>
	<title>icon_hogar</title>
	<g id="icon_hogar">
		<path class="cls-1" d="M0,34A34,34,0,1,1,34,68,34,34,0,0,1,0,34"/>
		<path class="cls-2" d="M54.75,32.28,42.44,21.21l-.19-.14c-2.06-1.86-4.13-3.7-6.18-5.58a3.15,3.15,0,0,0-4.12,0c-1.35,1.23-15.57,14-18.23,16.38-.38.34-.69.75-1,1.13v.51c.6.79,1.19,1.59,1.81,2.37a.77.77,0,0,0,1.21.13c.19-.15,16.64-14.94,18-16.22a.31.31,0,0,1,.49,0c1.54,1.4,16.3,14.67,17.89,16.09.6.53,1,.48,1.51-.16l1.67-2.21V33A5.53,5.53,0,0,0,54.75,32.28Z"/>
		<path class="cls-2" d="M49.15,17.08c0-.85-.28-1.15-1.06-1.15h-4.6c-.83,0-1.09.28-1.09,1.19q0,.9,0,1.8L49.14,25Q49.15,21,49.15,17.08Z"/>
		<path class="cls-2" d="M37.16,39.35H30.83a1.1,1.1,0,0,0-1.1,1.1V51.28h8.53V40.45A1.1,1.1,0,0,0,37.16,39.35Z"/>
		<path class="cls-2" d="M49,35.48C48.6,35,34.5,22.53,34,22.09c-.58.52-12.41,11-14.9,13.24a.85.85,0,0,0-.32.71q0,6.59,0,13.18c0,1.32.67,2,1.89,2h7.26V40.45a2.9,2.9,0,0,1,2.9-2.9h6.33a2.9,2.9,0,0,1,2.9,2.9V51.28h7.25c1.25,0,1.91-.72,1.91-2.06q0-3,0-6c0-2.39,0-4.77,0-7.16A.86.86,0,0,0,49,35.48ZM36.37,31.59H31.62a.9.9,0,1,1,0-1.8h4.75a.9.9,0,1,1,0,1.8Z"/>
	</g>
</svg>
