<svg xmlns="http://www.w3.org/2000/svg" viewBox="0 0 26.57 27.46"><title>icn_calendar</title><g id="Capa_2" data-name="Capa 2"><g id="icn_calendar"><g id="icon_calendar"><path d="M24.82,2.79h-1.5a.75.75,0,0,0,0,1.5h1.5a.25.25,0,0,1,.25.25V25.71a.25.25,0,0,1-.25.25H1.75a.25.25,0,0,1-.25-.25V4.54a.25.25,0,0,1,.25-.25H3.3a.75.75,0,0,0,0-1.5H1.75A1.75,1.75,0,0,0,0,4.54V25.71a1.75,1.75,0,0,0,1.75,1.75H24.82a1.75,1.75,0,0,0,1.75-1.75V4.54A1.75,1.75,0,0,0,24.82,2.79Z"/><path d="M8.9,4.29h8.58a.75.75,0,0,0,0-1.5H8.9a.75.75,0,0,0,0,1.5Z"/><path d="M6.2,7.08a1,1,0,0,0,1-1V1a1,1,0,0,0-2,0V6.08A1,1,0,0,0,6.2,7.08Z"/><path d="M20.37,7.08a1,1,0,0,0,1-1V1a1,1,0,0,0-2,0V6.08A1,1,0,0,0,20.37,7.08Z"/><circle cx="6.2" cy="15.9" r="1.25"/><circle cx="13.29" cy="15.9" r="1.25"/><circle cx="20.37" cy="15.9" r="1.25"/><circle cx="6.2" cy="10.83" r="1.25"/><circle cx="13.29" cy="10.83" r="1.25"/><circle cx="20.37" cy="10.83" r="1.25"/><circle cx="6.2" cy="20.96" r="1.25"/><circle cx="13.29" cy="20.96" r="1.25"/></g></g></g></svg>