<svg xmlns="http://www.w3.org/2000/svg" viewBox="0 0 57.51 64.66">
	<title>isologo_walmart</title>
	<g id="isologo_walmart">
		<path id="path2974" d="M28.72,21.76c1.51,0,2.77-.8,2.94-1.8l1.51-16.9c0-1.68-2-3.06-4.4-3.06s-4.4,1.38-4.4,3.06L25.87,20c.13,1,1.34,1.8,2.85,1.8h0"/><path id="path2976" d="M19.58,27c.75-1.3.71-2.77-.08-3.44L5.62,13.88C4.19,13,2,14,.79,16.19s-1,4.53.42,5.33L16.6,28.68c.92.34,2.22-.34,3-1.64h0"/><path id="path2978" d="M37.86,27c.75,1.3,2.05,2,3,1.64l15.39-7.17c1.47-.84,1.68-3.23.42-5.33s-3.4-3.14-4.86-2.31L37.95,23.61A2.84,2.84,0,0,0,37.86,27h0"/><path id="path2980" d="M28.72,42.89c1.51,0,2.77.8,2.94,1.8l1.51,16.9c0,1.68-2,3.06-4.4,3.06s-4.4-1.38-4.4-3.06l1.51-16.9c.13-1,1.34-1.8,2.85-1.8h0"/><path id="path2982" d="M37.86,37.61c.75-1.3,2.05-2,3-1.64l15.39,7.17c1.47.84,1.68,3.23.42,5.37s-3.4,3.14-4.86,2.31L37.95,41.09a2.91,2.91,0,0,1-.08-3.48h0"/><path id="path2984" d="M19.58,37.61c.75,1.3.71,2.77-.08,3.44L5.62,50.78C4.19,51.62,2,50.61.79,48.47s-1-4.53.42-5.37L16.56,36c1-.38,2.26.29,3,1.64h0"/>
	</g>
</svg>
